<?xml version="1.0" encoding="utf-8"?>
<!-- Generator: Adobe Illustrator 19.2.1, SVG Export Plug-In . SVG Version: 6.00 Build 0)  -->
<!DOCTYPE svg PUBLIC "-//W3C//DTD SVG 1.1//EN" "http://www.w3.org/Graphics/SVG/1.1/DTD/svg11.dtd">
<svg xmlns="http://www.w3.org/2000/svg" viewBox="0 0 27 27" height="27" width="27">
	<title>restaurant-15.svg</title>
	<rect x="0" y="0" width="27" height="27" rx="13.5" ry="13.5" fill="rgba(17,34,51,0.88)"></rect>
	<path
		fill="#fff"
		transform="translate(6 6)"
		d="M7.5,1c-2,0-7,0.25-6.5,0.75L7,8v4
	c0,1-3,0.5-3,2h7c0-1.5-3-1-3-2V8l6-6.25C14.5,1.25,9.5,1,7.5,1z M7.5,2c2.5,0,4.75,0.25,4.75,0.25L11.5,3h-8L2.75,2.25
	C2.75,2.25,5,2,7.5,2z"/>
</svg>

